<?xml version="1.0" encoding="UTF-8"?>
<svg width="203px" height="60px" viewBox="0 0 203 60" version="1.1" xmlns="http://www.w3.org/2000/svg" xmlns:xlink="http://www.w3.org/1999/xlink">
    <!-- Generator: Sketch 51.3 (57544) - http://www.bohemiancoding.com/sketch -->
    <title>buttons/playstore</title>
    <desc>Created with Sketch.</desc>
    <defs>
        <linearGradient x1="91.4762131%" y1="4.94615078%" x2="-38.5502813%" y2="71.8787395%" id="linearGradient-1">
            <stop stop-color="#00A0FF" offset="0%"></stop>
            <stop stop-color="#00A1FF" offset="1%"></stop>
            <stop stop-color="#00BEFF" offset="26%"></stop>
            <stop stop-color="#00D2FF" offset="51%"></stop>
            <stop stop-color="#00DFFF" offset="76%"></stop>
            <stop stop-color="#00E3FF" offset="100%"></stop>
        </linearGradient>
        <linearGradient x1="107.684729%" y1="50%" x2="-130.640394%" y2="50%" id="linearGradient-2">
            <stop stop-color="#FFE000" offset="0%"></stop>
            <stop stop-color="#FFBD00" offset="41%"></stop>
            <stop stop-color="#FFA500" offset="78%"></stop>
            <stop stop-color="#FF9C00" offset="100%"></stop>
        </linearGradient>
        <linearGradient x1="86.2709832%" y1="17.871098%" x2="-50.1798561%" y2="194.639567%" id="linearGradient-3">
            <stop stop-color="#FF3A44" offset="0%"></stop>
            <stop stop-color="#C31162" offset="100%"></stop>
        </linearGradient>
        <linearGradient x1="-18.82494%" y1="-54.0297086%" x2="42.0863309%" y2="24.9280028%" id="linearGradient-4">
            <stop stop-color="#32A071" offset="0%"></stop>
            <stop stop-color="#2DA771" offset="7%"></stop>
            <stop stop-color="#15CF74" offset="48%"></stop>
            <stop stop-color="#06E775" offset="80%"></stop>
            <stop stop-color="#00F076" offset="100%"></stop>
        </linearGradient>
    </defs>
    <g id="Scanbot-8" stroke="none" stroke-width="1" fill="none" fill-rule="evenodd">
        <g id="Scanbot" transform="translate(-961.000000, -764.000000)">
            <g id="Download-Buttons" transform="translate(757.000000, 764.000000)">
                <g id="Graphics-/-Store-/-Google-/-🇺🇸" transform="translate(204.000000, 0.000000)">
                    <g id="Asset-1">
                        <rect id="Rectangle-path" fill="#000000" fill-rule="nonzero" x="0" y="0" width="202.5" height="60" rx="7.5"></rect>
                        <path d="M195,1.2 C198.479394,1.2 201.3,4.02060608 201.3,7.5 L201.3,52.5 C201.3,55.9793939 198.479394,58.8 195,58.8 L7.5,58.8 C4.02060608,58.8 1.2,55.9793939 1.2,52.5 L1.2,7.5 C1.2,4.02060608 4.02060608,1.2 7.5,1.2 L195,1.2 Z M195,0 L7.5,0 C3.35786438,-2.53632657e-16 5.07265313e-16,3.35786438 0,7.5 L0,52.5 C5.07265313e-16,56.6421356 3.35786438,60 7.5,60 L195,60 C199.142136,60 202.5,56.6421356 202.5,52.5 L202.5,7.5 C202.5,3.35786438 199.142136,2.53632657e-16 195,0 Z" id="Shape" fill="#A6A6A6" fill-rule="nonzero"></path>
                        <path d="M71.13,15.36 C71.179762,16.4715673 70.7733855,17.555238 70.005,18.36 C69.1431325,19.2498107 67.9427736,19.7299543 66.705,19.68 C65.4608683,19.7077269 64.2607995,19.2190111 63.39,18.33 C62.4916196,17.4581855 61.9970056,16.2515447 62.025,15 C61.9927927,13.7432831 62.487741,12.5303876 63.39,11.655 C64.7563661,10.3198722 66.7906776,9.93548196 68.55,10.68 C69.0909027,10.9023457 69.5733606,11.2462252 69.96,11.685 L69.165,12.48 C68.5610312,11.7524259 67.6493816,11.3521895 66.705,11.4 C65.7582741,11.3953558 64.850519,11.7766315 64.191054,12.4559087 C63.5315891,13.1351859 63.1773425,14.0538261 63.21,15 C63.1899029,16.4297845 64.0319648,17.7312593 65.3443999,18.2988875 C66.6568351,18.8665156 68.1818888,18.5888185 69.21,17.595 C69.6725297,17.09411 69.9434403,16.4460496 69.975,15.765 L66.705,15.765 L66.705,14.685 L71.07,14.685 C71.1035474,14.9085897 71.1235837,15.1339986 71.13,15.36 Z" id="Shape" stroke="#FFFFFF" stroke-width="0.5" fill="#FFFFFF" fill-rule="nonzero"></path>
                        <polygon id="Shape" stroke="#FFFFFF" stroke-width="0.5" fill="#FFFFFF" fill-rule="nonzero" points="78 11.61 73.95 11.61 73.95 14.46 77.64 14.46 77.64 15.54 73.95 15.54 73.95 18.39 78 18.39 78 19.5 72.78 19.5 72.78 10.5 78 10.5"></polygon>
                        <polygon id="Shape" stroke="#FFFFFF" stroke-width="0.5" fill="#FFFFFF" fill-rule="nonzero" points="82.92 19.5 81.765 19.5 81.765 11.61 79.245 11.61 79.245 10.5 85.5 10.5 85.5 11.61 82.92 11.61"></polygon>
                        <polygon id="Shape" stroke="#FFFFFF" stroke-width="0.5" fill="#FFFFFF" fill-rule="nonzero" points="89.91 19.5 89.91 10.5 91.065 10.5 91.065 19.5"></polygon>
                        <polygon id="Shape" stroke="#FFFFFF" stroke-width="0.5" fill="#FFFFFF" fill-rule="nonzero" points="96.195 19.5 95.04 19.5 95.04 11.61 92.52 11.61 92.52 10.5 98.7 10.5 98.7 11.61 96.195 11.61"></polygon>
                        <path d="M110.415,18.33 C109.540034,19.2056814 108.352895,19.6976943 107.115,19.6976943 C105.877105,19.6976943 104.689966,19.2056814 103.815,18.33 C102.933133,17.4504989 102.455214,16.2448409 102.495,15 C102.455214,13.7551591 102.933133,12.5495011 103.815,11.67 C104.672238,10.7684613 105.871388,10.2724491 107.115,10.305 C108.356186,10.2853658 109.550354,10.7793171 110.415,11.67 C111.286377,12.5563678 111.76244,13.7573444 111.735,15 C111.774786,16.2448409 111.296867,17.4504989 110.415,18.33 Z M104.67,17.58 C105.31545,18.2340868 106.196068,18.6022837 107.115,18.6022837 C108.033932,18.6022837 108.91455,18.2340868 109.56,17.58 C110.231382,16.892111 110.594169,15.9607779 110.565,15 C110.578331,14.030436 110.193367,13.0978456 109.5,12.42 C108.85455,11.7659132 107.973932,11.3977163 107.055,11.3977163 C106.136068,11.3977163 105.25545,11.7659132 104.61,12.42 C103.960485,13.1176923 103.619789,14.0478441 103.665,15 C103.635831,15.9607779 103.998618,16.892111 104.67,17.58 Z" id="Shape" stroke="#FFFFFF" stroke-width="0.5" fill="#FFFFFF" fill-rule="nonzero"></path>
                        <polygon id="Shape" stroke="#FFFFFF" stroke-width="0.5" fill="#FFFFFF" fill-rule="nonzero" points="113.37 19.5 113.37 10.5 114.765 10.5 119.145 17.505 119.145 17.505 119.145 15.765 119.145 10.5 120.3 10.5 120.3 19.5 119.1 19.5 114.525 12.165 114.525 12.165 114.525 13.89 114.525 19.5"></polygon>
                        <path d="M102.21,32.625 C98.6809148,32.633294 95.8267477,35.5009029 95.8350352,39.0299882 C95.8433227,42.5590734 98.7109264,45.4132458 102.240012,45.4049648 C105.769097,45.3966838 108.623275,42.5290853 108.615,39 C108.639709,37.2965607 107.971847,35.6560646 106.764383,34.4542555 C105.556918,33.2524464 103.913305,32.5922935 102.21,32.625 Z M102.21,42.87 C100.624841,42.9808579 99.1330094,42.1114702 98.448032,40.6776556 C97.7630545,39.243841 98.0241538,37.5370242 99.1064488,36.373557 C100.188744,35.2100899 101.872257,34.8264486 103.351782,35.4061246 C104.831307,35.9858006 105.806128,37.4109741 105.81,39 C105.858814,39.9940078 105.504049,40.9655892 104.826211,41.6942656 C104.148372,42.422942 103.204938,42.8469246 102.21,42.87 Z M88.23,32.625 C84.7009148,32.633294 81.8467477,35.5009029 81.8550352,39.0299882 C81.8633227,42.5590734 84.7309264,45.4132458 88.2600117,45.4049648 C91.7890969,45.3966838 94.6432745,42.5290853 94.635,39 C94.6597095,37.2965607 93.9918474,35.6560646 92.7843827,34.4542555 C91.576918,33.2524464 89.9333046,32.5922935 88.23,32.625 Z M88.23,42.87 C86.644841,42.9808579 85.1530094,42.1114702 84.468032,40.6776556 C83.7830545,39.243841 84.0441538,37.5370242 85.1264488,36.373557 C86.2087439,35.2100899 87.8922568,34.8264486 89.3717818,35.4061246 C90.8513067,35.9858006 91.8261283,37.4109741 91.83,39 C91.8788142,39.9940078 91.524049,40.9655892 90.8462105,41.6942656 C90.168372,42.422942 89.2249382,42.8469246 88.23,42.87 Z M71.61,34.59 L71.61,37.29 L78.09,37.29 C77.9883951,38.5617057 77.4597669,39.7616917 76.59,40.695 C75.2754778,42.0342938 73.4549587,42.7537803 71.58,42.675 C67.6035498,42.675 64.38,39.4514502 64.38,35.475 C64.38,31.4985498 67.6035498,28.275 71.58,28.275 C73.4106714,28.2477746 75.1783431,28.942987 76.5,30.21 L78.405,28.305 C76.598971,26.5187313 74.1498578,25.5347608 71.61,25.575 C67.9784411,25.4336685 64.5605903,27.2905077 62.7027811,30.4140856 C60.8449718,33.5376635 60.8449718,37.4273365 62.7027811,40.5509144 C64.5605903,43.6744923 67.9784411,45.5313315 71.61,45.39 C74.2052981,45.4936569 76.7213213,44.4839729 78.525,42.615 C80.1001777,40.8846151 80.9394947,38.6087747 80.865,36.27 C80.870369,35.7070883 80.8251876,35.1448313 80.73,34.59 L71.61,34.59 Z M139.575,36.69 C138.774119,34.3338151 136.601892,32.7165796 134.115,32.625 C132.456545,32.6217575 130.870718,33.3051113 129.734069,34.5128003 C128.597421,35.7204893 128.011343,37.3447847 128.115,39 C128.088661,41.8122291 129.916685,44.306248 132.60639,45.1277173 C135.296095,45.9491866 138.205624,44.9020747 139.755,42.555 L137.58,41.055 C136.920251,42.154641 135.727312,42.8224581 134.445,42.81 C133.114253,42.8649445 131.886619,42.0961835 131.355,40.875 L139.89,37.35 L139.575,36.69 Z M130.875,38.82 C130.813589,37.8802552 131.134021,36.9554952 131.763706,36.2552177 C132.393391,35.5549402 133.279034,35.138414 134.22,35.1 C135.204705,35.0369737 136.131788,35.5684222 136.575,36.45 L130.875,38.82 Z M123.945,45 L126.75,45 L126.75,26.25 L123.945,26.25 L123.945,45 Z M119.355,34.05 L119.25,34.05 C118.388324,33.1120893 117.163227,32.5925172 115.89,32.625 C112.48522,32.7901075 109.809506,35.5987194 109.809506,39.0075 C109.809506,42.4162806 112.48522,45.2248925 115.89,45.39 C117.177596,45.415828 118.409576,44.8658373 119.25,43.89 L119.355,43.89 L119.355,44.805 C119.355,47.25 118.05,48.555 115.95,48.555 C114.515272,48.5234814 113.241524,47.6288955 112.725,46.29 L110.295,47.295 C111.214724,49.6049843 113.463878,51.1083974 115.95,51.075 C119.235,51.075 121.95,49.14 121.95,44.43 L121.95,33 L119.355,33 L119.355,34.05 Z M116.13,42.87 C114.09013,42.7428183 112.500819,41.051331 112.500819,39.0075 C112.500819,36.963669 114.09013,35.2721817 116.13,35.145 C117.100531,35.1868827 118.012516,35.6208315 118.657199,36.347514 C119.301882,37.0741964 119.624066,38.0313937 119.55,39 C119.632702,39.9720741 119.313986,40.9356467 118.667955,41.6666816 C118.021925,42.3977164 117.104866,42.8325207 116.13,42.87 Z M152.715,26.25 L145.995,26.25 L145.995,45 L148.8,45 L148.8,37.89 L152.715,37.89 C154.894026,38.0465457 156.977961,36.9727634 158.115195,35.1074595 C159.252429,33.2421555 159.252429,30.8978445 158.115195,29.0325405 C156.977961,27.1672366 154.894026,26.0934543 152.715,26.25 Z M152.715,35.25 L148.8,35.25 L148.8,28.86 L152.775,28.86 C154.547834,28.86 155.985,30.297166 155.985,32.07 C155.985,33.842834 154.547834,35.28 152.775,35.28 L152.715,35.25 Z M170.025,32.565 C167.937133,32.4362621 165.973053,33.5628064 165.03,35.43 L167.505,36.465 C168.015904,35.5438845 169.020602,35.0092209 170.07,35.1 C170.789292,35.0159919 171.51218,35.2244551 172.076292,35.6785653 C172.640404,36.1326754 172.998448,36.7943623 173.07,37.515 L173.07,37.695 C172.167995,37.2208751 171.164022,36.9737434 170.145,36.975 C167.475,36.975 164.745,38.475 164.745,41.205 C164.798353,42.3773719 165.324763,43.4780173 166.203936,44.2554213 C167.083109,45.0328253 168.239913,45.4205521 169.41,45.33 C170.843118,45.4092719 172.207666,44.7097975 172.98,43.5 L173.07,43.5 L173.07,45 L175.77,45 L175.77,37.785 C175.77,34.5 173.28,32.595 170.085,32.595 L170.025,32.565 Z M169.68,42.84 C168.765,42.84 167.49,42.375 167.49,41.25 C167.49,39.75 169.08,39.24 170.49,39.24 C171.381063,39.2180129 172.261696,39.4355811 173.04,39.87 C172.845236,41.5546565 171.435541,42.8361977 169.74,42.87 L169.68,42.84 Z M185.61,33 L182.4,41.13 L182.31,41.13 L178.98,33 L175.98,33 L180.975,44.37 L178.125,50.685 L181.125,50.685 L188.73,33 L185.61,33 Z M160.41,45 L163.2,45 L163.2,26.25 L160.41,26.25 L160.41,45 Z" id="Shape" fill="#FFFFFF" fill-rule="nonzero"></path>
                        <path d="M15.66,11.31 C15.1818549,11.9010833 14.9459599,12.6516585 15,13.41 L15,46.59 C14.948961,47.3555689 15.2023403,48.1103157 15.705,48.69 L15.81,48.81 L34.35,30.225 L34.35,29.775 L15.765,11.205 L15.66,11.31 Z" id="Shape" fill="url(#linearGradient-1)" fill-rule="nonzero"></path>
                        <path d="M40.5,36.42 L34.35,30.225 L34.35,29.775 L40.5,23.58 L40.635,23.67 L48,27.84 C50.1,29.025 50.1,30.975 48,32.175 L40.665,36.345 L40.5,36.42 Z" id="Shape" fill="url(#linearGradient-2)" fill-rule="nonzero"></path>
                        <path d="M40.68,36.345 L34.35,30 L15.66,48.69 C16.5345489,49.4684562 17.83986,49.5125972 18.765,48.795 L40.68,36.345" id="Shape" fill="url(#linearGradient-3)" fill-rule="nonzero"></path>
                        <path d="M40.68,23.67 L18.765,11.22 C17.8454469,10.4920823 16.5358466,10.5300417 15.66,11.31 L34.35,30 L40.68,23.67 Z" id="Shape" fill="url(#linearGradient-4)" fill-rule="nonzero"></path>
                        <path d="M40.5,36.195 L18.765,48.57 C17.8772313,49.2400189 16.6527687,49.2400189 15.765,48.57 L15.66,48.675 L15.765,48.795 C16.6527687,49.4650189 17.8772313,49.4650189 18.765,48.795 L40.68,36.345 L40.5,36.195 Z" id="Shape" fill="#000000" fill-rule="nonzero" opacity="0.2"></path>
                        <path d="M15.66,48.48 C15.1781911,47.8850399 14.9420729,47.1283883 15,46.365 L15,46.59 C14.948961,47.3555689 15.2023403,48.1103157 15.705,48.69 L15.81,48.585 L15.66,48.48 Z" id="Shape" fill="#000000" fill-rule="nonzero" opacity="0.12"></path>
                        <path d="M48,31.95 L40.5,36.195 L40.635,36.345 L48,32.16 C48.8855932,31.7855374 49.4955905,30.9568617 49.59,30 C49.3998122,30.8656504 48.8096425,31.5894435 48,31.95 Z" id="Shape" fill="#000000" fill-rule="nonzero" opacity="0.12"></path>
                        <path d="M18.765,11.43 L48,28.05 C48.8096425,28.4105565 49.3998122,29.1343496 49.59,30 C49.4955905,29.0431383 48.8855932,28.2144626 48,27.84 L18.765,11.22 C16.68,10.02 15,11.01 15,13.41 L15,13.635 C15,11.235 16.68,10.245 18.765,11.43 Z" id="Shape" fill="#FFFFFF" fill-rule="nonzero" opacity="0.25"></path>
                    </g>
                </g>
            </g>
        </g>
    </g>
</svg>